<svg xmlns="http://www.w3.org/2000/svg" xml:space="preserve" width="2048" height="2048" style="shape-rendering:geometricPrecision;text-rendering:geometricPrecision;image-rendering:optimizeQuality;fill-rule:evenodd;clip-rule:evenodd"><defs><style>.fil0{fill:#b91c1c44}</style></defs><g id="Layer_x0020_1"><g id="_428519976"><path class="fil0" d="M1002 1071zm339-100c-105 5-141-30-144-94-2-37 11-80 25-131 33-114 78-269-43-402-35-39-92-66-152-89 20 50 36 111 42 174 5 53 4 107-7 156-12 52-35 98-73 133-34 30-78 51-135 57-16 2-32 1-47-3-44-9-86-36-117-71-22-24-39-53-49-83-175 172-126 339-86 472 20 67 38 127 29 181-2 13-6 26-11 37-10 23-26 43-46 57-22 15-47 22-76 17-10-2-19-4-29-9-6-3-12-5-17-8 44 169 128 282 243 349 21 12 43 23 66 32 6-17-3-47-13-83-30-103-69-240 100-375 15-12 38-10 50 6 7 9 9 19 7 29 0 2-1 5 0 8 1 13 9 27 20 39s25 22 39 25c4 1 8 1 11 1 21-2 37-9 48-19 13-12 22-30 26-50 5-23 6-49 3-75-5-55-24-106-41-124-13-15-12-37 3-50 10-9 24-11 36-7 289 104 239 270 205 382-8 25-14 47-13 59 0 2 7 3 27 2 12-1 23-11 31-24 17-27 25-66 28-92 2-19 19-34 39-32 13 1 24 9 29 20 30 64 38 117 36 163-3 47-17 86-33 122-6 12-14 37-19 64 0 2-1 4-1 6 96-31 180-87 237-163 38-49 65-107 78-173-21 21-45 36-70 40s-46 4-64-1c-43-10-68-37-81-74-11-31-12-69-8-106 7-65 30-132 44-163 23-52 43-107 47-171 2-35-1-73-11-116-9 25-20 50-33 71-29 47-71 82-128 85z"/><path class="fil0" d="M1223 1585c-74 4-99-22-101-69-1-25 7-52 16-83 22-74 53-177-77-256 6 22 11 45 13 69 3 33 2 67-5 97-8 34-23 64-48 87-22 20-51 34-89 37-11 1-22 0-32-2-30-6-57-24-78-47-9-10-17-21-23-33-80 92-53 186-32 259 14 48 26 91 15 125 99 25 214 28 340 13 43-5 87-13 132-22 0-12 2-25 4-38 6-33 17-65 24-80 13-30 25-61 27-97v-18c-20 32-48 55-88 57z"/></g></g><path style="fill:none" d="M0 0h2048v2048H0z"/></svg>